<?xml version="1.0" encoding="iso-8859-1"?>
<!-- Uploaded to: SVG Repo, www.svgrepo.com, Generator: SVG Repo Mixer Tools -->
<svg height="800px" width="800px" version="1.1" id="Layer_1" xmlns="http://www.w3.org/2000/svg" xmlns:xlink="http://www.w3.org/1999/xlink" 
	 viewBox="0 0 473.931 473.931" xml:space="preserve">
<circle style="fill:#49A0AE;" cx="236.966" cy="236.966" r="236.966"/>
<path style="fill:#ECECEC;" d="M396.709,173.083c-6.249-5.983-23.865-25.309-71.385-27.038v-0.079h-2.675
	c-2.814-0.067-5.691-0.067-8.655,0h-137.39c-54.701-1.25-75.995,20.669-82.715,27.113c-8.962,8.576-11.345,79.819-3.487,95.486
	c7.858,15.667,49.474,36.505,75.628,40.654c77.855,12.359,83.928,11.54,158.535,0c26.177-4.049,67.775-24.991,75.632-40.654
	C408.054,252.902,405.67,181.659,396.709,173.083z"/>
<path style="fill:#D8E4E1;" d="M174.897,321.705c0,0,35.135,8.999,70.517,8.999s68.287-8.999,68.287-8.999l-68.399-107.306
	L174.897,321.705z"/>
<path style="fill:#CAD8D4;" d="M272.408,322.978c0,8.913-15.902,11.581-27.18,11.581l0,0c-11.278,0-27.176-2.668-27.176-11.581
	l11.005-68.661c0-8.917,4.894-16.142,16.168-16.142l0,0c11.278,0,16.164,7.229,16.164,16.142L272.408,322.978z"/>
<path style="fill:#BDD2CE;" d="M245.227,334.555L245.227,334.555c-11.278,0-27.176-2.668-27.176-11.581l11.005-68.661
	c0-8.917,4.894-16.142,16.168-16.142l0,0v96.384H245.227z"/>
<path style="fill:#377EC0;" d="M419.665,200.966c-7.192-5.699-35.767-24.138-87.404-25.788v-0.075h-2.904
	c-3.057-0.06-6.189-0.064-9.411,0H170.65c-59.442-1.19-91.972,19.723-99.718,25.859c-10.32,8.187-2.492,76.137,6.047,91.078
	c8.539,14.945,53.365,38.424,82.18,38.776c16.655,0.21,40.905-28.224,59.715-59.191c3.663-4.943,14.608-18.215,26.54-18.215
	c14.66,0,27.352,20.041,27.352,20.041l-0.041-0.176c18.664,30.323,42.353,57.747,58.708,57.541
	c28.815-0.355,73.645-23.831,82.18-38.776C422.157,277.104,429.984,209.153,419.665,200.966z M244.27,218.077
	c0.382-1.261,0.722-2.488,1.029-3.674c0.307,1.186,0.651,2.417,1.029,3.674H244.27z"/>
<path style="fill:#5A5A5A;" d="M403.22,210.878c-5.676-4.501-27.805-18.784-67.617-20.737v-0.187h-5.571
	c-2.529-0.052-5.104-0.056-7.764,0H168.334c-2.66-0.056-5.235-0.052-7.764,0h-3.858v0.097c-40.905,1.62-63.576,16.262-69.331,20.823
	c-8.352,6.623-2.017,61.623,4.894,73.716c6.915,12.09,43.195,31.098,66.517,31.386c17.934,0.225,46.757-40.583,61.616-72.672
	l-0.105,0.46c0,0,10.518-25.609,25.115-25.609h0.004c10.567,0,18.989,13.418,22.84,20.823c14.148,32.621,44.8,77.226,63.55,76.994
	c23.322-0.288,59.606-19.293,66.517-31.386C405.236,272.501,411.567,217.497,403.22,210.878z"/>
<g>
	<path style="fill:#D8E4E1;" d="M219.189,222.983c-4.703,24.991-40.579,84.369-60.62,84.119
		c-20.037-0.247-51.217-16.576-57.152-26.967s-11.382-57.649-4.209-63.337c7.177-5.691,44.942-29.609,116.784-11.135
		C222.65,207.892,221.018,213.247,219.189,222.983z"/>
	<path style="fill:#D8E4E1;" d="M271.409,222.983c4.703,24.991,40.579,84.369,60.617,84.119
		c20.041-0.247,51.217-16.576,57.155-26.967c5.934-10.391,11.379-57.649,4.202-63.341c-7.173-5.691-44.939-29.609-116.78-11.135
		C267.947,207.892,269.579,213.247,271.409,222.983z"/>
</g>
</svg>